<svg width="40" height="40" viewBox="0 0 40 40" fill="none" xmlns="http://www.w3.org/2000/svg">
<path d="M53.0195 32.8653V32.2958L66.6193 11.9544H53.9788V8.06061H74.6067V8.64683L61.0835 28.9549H74.2803V32.8653H53.0195Z" fill="white"/>
<path d="M77.2383 32.8653V8.06061H95.0516V11.9544H81.8548V18.0698H92.7533V21.9635H81.8548V28.9749H95.0516V32.8687H77.2383V32.8653Z" fill="white"/>
<path d="M98.1152 32.8653V8.06061H115.929V11.9544H102.732V18.0698H113.63V21.9635H102.732V28.9749H115.929V32.8687H98.1152V32.8653Z" fill="white"/>
<path d="M118.994 32.8653V8.06061H129.929C131.794 8.06061 133.323 8.39702 134.515 9.06652C135.708 9.73935 136.597 10.5954 137.177 11.6413C137.756 12.6871 138.049 13.7663 138.049 14.8788C138.049 16.2445 137.69 17.4036 136.967 18.3596C136.244 19.3122 135.265 19.955 134.026 20.2881V19.4254C135.761 19.7818 137.08 20.5213 137.983 21.6471C138.882 22.7729 139.332 24.0519 139.332 25.4875C139.332 26.9231 139.019 28.2455 138.392 29.3446C137.766 30.4472 136.837 31.3098 135.604 31.9294C134.372 32.5489 132.85 32.8587 131.038 32.8587H118.99L118.994 32.8653ZM123.667 17.9665H129.872C130.535 17.9665 131.131 17.8533 131.654 17.6234C132.177 17.3936 132.593 17.0539 132.9 16.6075C133.206 16.1612 133.359 15.6083 133.359 14.9554C133.359 14.0928 133.053 13.3766 132.44 12.8037C131.827 12.2308 130.971 11.941 129.872 11.941H123.667V17.9698V17.9665ZM123.667 28.9549H130.465C131.271 28.9549 131.99 28.8084 132.63 28.5153C133.27 28.2222 133.769 27.8091 134.132 27.2762C134.495 26.7433 134.678 26.1071 134.678 25.3743C134.678 24.7081 134.519 24.1119 134.199 23.5823C133.879 23.056 133.413 22.633 132.8 22.3166C132.187 22.0002 131.454 21.8436 130.598 21.8436H123.663V28.9583L123.667 28.9549Z" fill="white"/>
<path d="M153.175 33.3816C150.98 33.3816 149.048 32.9786 147.382 32.1759C145.717 31.3731 144.415 30.2406 143.475 28.7817C142.536 27.3228 142.066 25.6141 142.066 23.6489V8.09725L146.74 8.06394V23.549C146.74 24.4783 146.916 25.311 147.266 26.0471C147.616 26.7832 148.092 27.4061 148.691 27.9157C149.291 28.4287 149.98 28.815 150.76 29.0782C151.539 29.3413 152.342 29.4745 153.175 29.4745C154.007 29.4745 154.844 29.338 155.616 29.0682C156.389 28.7984 157.075 28.4087 157.675 27.8957C158.274 27.3861 158.747 26.7632 159.094 26.0271C159.437 25.291 159.61 24.465 159.61 23.5457V8.06061H164.283V23.6489C164.283 25.6141 163.813 27.3228 162.874 28.7817C161.935 30.2406 160.633 31.3698 158.967 32.1759C157.302 32.9786 155.37 33.3816 153.175 33.3816Z" fill="white"/>
<path d="M39.2434 9.50618L35.6728 3.33414L21.2402 28.3321L30.8797 28.342L39.2467 13.7963C40.0128 12.4673 40.0128 10.8318 39.2434 9.50284V9.50618Z" fill="url(#paint0_linear_697_2982)"/>
<path d="M35.6725 3.33748L8.91588 3.32748C7.63018 3.32748 6.43774 4.01364 5.79488 5.12947L3.26012 9.51951C2.49402 10.8485 2.49402 12.484 3.26012 13.8096L6.82411 20.005L11.6172 11.6746H30.8561" fill="url(#paint1_linear_697_2982)"/>
<path d="M3.26694 30.4905L6.8376 36.6625L21.2668 11.6712H11.6207L3.26361 26.197C2.49751 27.526 2.49751 29.1615 3.26694 30.4905Z" fill="url(#paint2_linear_697_2982)"/>
<path d="M6.83789 36.6625L33.5945 36.6725C34.8802 36.6725 36.0727 35.9863 36.7155 34.8705L39.2503 30.4805C40.0164 29.1514 40.0164 27.516 39.2503 26.1903L35.6796 20.005L30.8799 28.3454L11.651 28.3254" fill="url(#paint3_linear_697_2982)"/>
<defs>
<linearGradient id="paint0_linear_697_2982" x1="44.223" y1="4.89297" x2="23.312" y2="25.8073" gradientUnits="userSpaceOnUse">
<stop stop-color="#F6A23A"/>
<stop offset="0.92" stop-color="#F15729"/>
<stop offset="1" stop-color="#F15729"/>
</linearGradient>
<linearGradient id="paint1_linear_697_2982" x1="-4.67727" y1="13.3966" x2="42.7006" y2="6.79487" gradientUnits="userSpaceOnUse">
<stop stop-color="white"/>
<stop offset="0.04" stop-color="#FCFEFF"/>
<stop offset="0.06" stop-color="#F2FDFF"/>
<stop offset="0.08" stop-color="#E2FCFF"/>
<stop offset="0.1" stop-color="#CCF9FF"/>
<stop offset="0.12" stop-color="#AEF6FF"/>
<stop offset="0.13" stop-color="#8BF3FF"/>
<stop offset="0.15" stop-color="#60EEFF"/>
<stop offset="0.16" stop-color="#30E9FF"/>
<stop offset="0.18" stop-color="#00E5FF"/>
<stop offset="0.83" stop-color="#2A44FF"/>
</linearGradient>
<linearGradient id="paint2_linear_697_2982" x1="-5.96614" y1="39.3605" x2="28.3448" y2="5.05284" gradientUnits="userSpaceOnUse">
<stop stop-color="#F6A23A"/>
<stop offset="0.92" stop-color="#F15729"/>
<stop offset="1" stop-color="#F15729"/>
</linearGradient>
<linearGradient id="paint3_linear_697_2982" x1="45.7987" y1="28.8117" x2="-0.543247" y2="27.9057" gradientUnits="userSpaceOnUse">
<stop stop-color="white"/>
<stop offset="0.04" stop-color="#FCFEFF"/>
<stop offset="0.06" stop-color="#F2FDFF"/>
<stop offset="0.08" stop-color="#E2FCFF"/>
<stop offset="0.1" stop-color="#CCF9FF"/>
<stop offset="0.12" stop-color="#AEF6FF"/>
<stop offset="0.13" stop-color="#8BF3FF"/>
<stop offset="0.15" stop-color="#60EEFF"/>
<stop offset="0.16" stop-color="#30E9FF"/>
<stop offset="0.18" stop-color="#00E5FF"/>
<stop offset="0.83" stop-color="#2A44FF"/>
</linearGradient>
</defs>
</svg>
